<svg width="40" height="11" viewBox="0 0 40 11" fill="none" xmlns="http://www.w3.org/2000/svg">
<path d="M2.73713 0.925521C2.59166 0.774641 2.41629 0.65616 2.22236 0.577748C2.02844 0.499337 1.82029 0.462745 1.61141 0.470341C1.38879 0.467383 1.16781 0.50887 0.961267 0.5924C0.771901 0.667823 0.599767 0.781158 0.455322 0.925521C0.312451 1.07032 0.201292 1.24355 0.128988 1.4341C0.0496792 1.6338 0.0101425 1.8472 0.0126205 2.0622V5.85623C0.00357283 6.12358 0.0545882 6.38955 0.161874 6.63436C0.251433 6.82878 0.380725 7.00207 0.541333 7.14294C0.692953 7.2706 0.870978 7.36268 1.06246 7.41249C1.24694 7.46435 1.43755 7.49087 1.62911 7.49132C1.84041 7.49344 2.04953 7.44827 2.24131 7.35909C2.43095 7.27611 2.60277 7.15693 2.74725 7.00816C2.88814 6.86077 3.00052 6.6883 3.07865 6.49958C3.15973 6.30827 3.20105 6.10231 3.20007 5.89437V5.4697H2.20842V5.80791C2.21137 5.9234 2.1916 6.03833 2.15024 6.14612C2.11794 6.22688 2.06877 6.29972 2.00604 6.35972C1.94461 6.40936 1.87416 6.4465 1.79861 6.46907C1.73164 6.49136 1.6617 6.50337 1.59117 6.50467C1.50263 6.51498 1.41296 6.50159 1.33122 6.46587C1.24948 6.43015 1.17858 6.37335 1.1257 6.30123C1.03222 6.14876 0.986395 5.97159 0.994154 5.79265V2.25546C0.988002 2.05931 1.02969 1.86463 1.11558 1.68839C1.16706 1.60832 1.2399 1.5444 1.32578 1.50393C1.41166 1.46346 1.50713 1.44808 1.60129 1.45953C1.68676 1.45649 1.7717 1.47433 1.8488 1.51154C1.92591 1.54874 1.99289 1.60419 2.04399 1.67314C2.15496 1.81882 2.21298 1.99829 2.20842 2.18172V2.50975H3.18995V2.12323C3.19195 1.89624 3.15073 1.67096 3.06853 1.45953C2.99527 1.26076 2.88251 1.07907 2.73713 0.925521Z" fill="#AFB1B8"/>
<path d="M8.62892 0.882247C8.31271 0.615243 7.91362 0.467726 7.50066 0.46521C7.29868 0.466063 7.09838 0.502202 6.9087 0.572012C6.71613 0.641039 6.53841 0.74633 6.38505 0.882247C6.22076 1.02992 6.08968 1.2111 6.00053 1.41371C5.90063 1.64546 5.85146 1.89609 5.85634 2.14862V5.78752C5.8495 6.0435 5.89873 6.29786 6.00053 6.5326C6.09028 6.72828 6.22152 6.90187 6.38505 7.04118C6.53665 7.18195 6.71468 7.29087 6.9087 7.36159C7.09838 7.4314 7.29868 7.46753 7.50066 7.46839C7.70269 7.468 7.90307 7.43185 8.09262 7.36159C8.28995 7.28988 8.47195 7.18115 8.62892 7.04118C8.7871 6.89926 8.91454 6.72614 9.00332 6.5326C9.10512 6.29786 9.15435 6.0435 9.14751 5.78752V2.14862C9.15239 1.89609 9.10322 1.64546 9.00332 1.41371C8.91505 1.21322 8.78775 1.03251 8.62892 0.882247ZM8.16598 5.78752C8.17434 5.88451 8.16095 5.98215 8.1268 6.07324C8.09265 6.16434 8.03861 6.24658 7.96866 6.31391C7.83768 6.42375 7.67251 6.48392 7.50193 6.48392C7.33135 6.48392 7.16617 6.42375 7.03519 6.31391C6.96524 6.24658 6.9112 6.16434 6.87705 6.07324C6.8429 5.98215 6.82952 5.88451 6.83787 5.78752V2.14862C6.82952 2.05163 6.8429 1.95399 6.87705 1.8629C6.9112 1.7718 6.96524 1.68956 7.03519 1.62224C7.16617 1.51239 7.33135 1.45222 7.50193 1.45222C7.67251 1.45222 7.83768 1.51239 7.96866 1.62224C8.03861 1.68956 8.09265 1.7718 8.1268 1.8629C8.16095 1.95399 8.17434 2.05163 8.16598 2.14862V5.78752Z" fill="#AFB1B8"/>
<path d="M16.3673 7.41255V0.523804H15.4136L14.1614 4.17034H14.1437L12.8813 0.523804H11.9377V7.41255H12.9218V3.22183H12.9395L13.9033 6.18432H14.3941L15.3655 3.22183H15.3832V7.41255H16.3673Z" fill="#AFB1B8"/>
<path d="M21.9581 1.0068C21.8065 0.836808 21.6153 0.707455 21.4015 0.630448C21.1712 0.555519 20.9302 0.519431 20.6881 0.523646H19.226V7.4124H20.2075V4.722H20.7134C21.0197 4.73593 21.3244 4.67117 21.5988 4.53382C21.822 4.40991 22.0081 4.22814 22.1377 4.00744C22.2512 3.82421 22.3277 3.62028 22.3628 3.40731C22.4014 3.1481 22.4192 2.88618 22.4159 2.62409C22.4255 2.29329 22.3932 1.96261 22.3198 1.63999C22.2543 1.40161 22.1299 1.18378 21.9581 1.0068ZM21.4521 3.10725C21.4479 3.23197 21.4168 3.35429 21.361 3.4658C21.3049 3.57173 21.2162 3.6565 21.1081 3.70738C20.9627 3.77239 20.8041 3.80201 20.6451 3.79384H20.1974V1.45181H20.7033C20.8557 1.44434 21.0075 1.474 21.146 1.53827C21.2475 1.59651 21.3281 1.68551 21.3762 1.79256C21.4299 1.91358 21.4591 2.04409 21.4622 2.17654C21.4622 2.32149 21.4622 2.47406 21.4622 2.63427C21.4622 2.79447 21.4723 2.95976 21.4622 3.10725H21.4521Z" fill="#AFB1B8"/>
<path d="M26.6077 0.523804H25.8032L24.2854 7.41255H25.2669L25.5553 5.93258H26.8935L27.1819 7.41255H28.1635L26.6077 0.523804ZM25.702 4.99424L26.1852 2.4971H26.2029L26.6836 4.99424H25.702Z" fill="#AFB1B8"/>
<path d="M32.9497 4.67384H32.932L31.4496 0.523804H30.506V7.41255H31.4875V3.27015H31.5078L33.0079 7.41255H33.9312V0.523804H32.9497V4.67384Z" fill="#AFB1B8"/>
<path d="M38.9476 0.523804L38.1583 3.26252H38.1381L37.3488 0.523804H36.3091L37.6574 4.50092V7.41255H38.639V4.50092L39.9873 0.523804H38.9476Z" fill="#AFB1B8"/>
<path d="M0 9.35766H0.473058V10.6851H0.794333V9.35766H1.26486V9.08557H0V9.35766Z" fill="#AFB1B8"/>
<path d="M3.97672 9.08557L3.35693 10.6851H3.69845L3.82999 10.3214H4.46748L4.60409 10.6851H4.95319L4.31823 9.08557H3.97672ZM3.92612 10.0519L4.14368 9.45938L4.36123 10.0519H3.92612Z" fill="#AFB1B8"/>
<path d="M7.90793 10.0953H8.27727V10.3012C8.16941 10.3877 8.03576 10.4352 7.89781 10.436C7.8333 10.4396 7.76886 10.4277 7.70988 10.4011C7.65091 10.3746 7.59911 10.3342 7.55883 10.2834C7.47402 10.1617 7.43217 10.0149 7.43993 9.86641C7.43993 9.5104 7.59424 9.33239 7.90034 9.33239C7.98091 9.32437 8.06168 9.3456 8.12804 9.39224C8.19439 9.43888 8.24194 9.50786 8.26209 9.58668L8.57831 9.52566C8.51001 9.21288 8.28486 9.05522 7.90034 9.05522C7.69468 9.04973 7.4947 9.12341 7.34127 9.26119C7.26069 9.34077 7.19834 9.43705 7.15858 9.54334C7.11882 9.64962 7.10261 9.76334 7.11107 9.87658C7.10175 10.0954 7.17493 10.3097 7.31598 10.4767C7.39434 10.5575 7.4892 10.6202 7.59401 10.6606C7.69883 10.701 7.8111 10.7181 7.92311 10.7106C8.17338 10.7176 8.41652 10.6264 8.60108 10.4564V9.82572H7.90793V10.0953Z" fill="#AFB1B8"/>
<path d="M11.9226 9.08557H11.5988V10.6851H12.7194V10.413H11.9226V9.08557Z" fill="#AFB1B8"/>
<path d="M15.3175 9.08557H14.9937V10.6851H15.3175V9.08557Z" fill="#AFB1B8"/>
<path d="M18.6365 10.1536L17.9813 9.08557H17.6676V10.6851H17.9686V9.63993L18.6112 10.6851H18.9325V9.08557H18.6365V10.1536Z" fill="#AFB1B8"/>
<path d="M21.6368 9.98068H22.4337V9.70858H21.6368V9.35766H22.4944V9.08557H21.313V10.6851H22.5273V10.413H21.6368V9.98068Z" fill="#AFB1B8"/>
<path d="M28.9122 9.71622H28.2823V9.08557H27.9611V10.6851H28.2823V9.98576H28.9122V10.6851H29.2335V9.08557H28.9122V9.71622Z" fill="#AFB1B8"/>
<path d="M31.9302 9.98068H32.7296V9.70858H31.9302V9.35766H32.7903V9.08557H31.6089V10.6851H32.8206V10.413H31.9302V9.98068Z" fill="#AFB1B8"/>
<path d="M36.0233 9.98074C36.3015 9.93751 36.4432 9.79002 36.4432 9.53573C36.4513 9.4677 36.441 9.39874 36.4134 9.3361C36.3858 9.27345 36.3419 9.21944 36.2863 9.17973C36.1415 9.10698 35.9799 9.0745 35.8183 9.08564H35.1404V10.6851H35.4617V10.0163H35.5249C35.5934 10.0121 35.6619 10.0243 35.7247 10.0519C35.7717 10.0809 35.8108 10.1211 35.8386 10.1689L36.1877 10.6775H36.5722L36.3774 10.3647C36.2913 10.2103 36.1699 10.0787 36.0233 9.98074ZM35.6994 9.75951H35.4617V9.35773H35.7146C35.8248 9.34879 35.9357 9.36175 36.041 9.39587C36.0644 9.41653 36.0828 9.44221 36.095 9.47102C36.1072 9.49983 36.1127 9.53102 36.1113 9.56229C36.1098 9.59355 36.1014 9.62409 36.0866 9.65162C36.0718 9.67916 36.051 9.703 36.0258 9.72136C35.9202 9.75375 35.8096 9.76667 35.6994 9.75951Z" fill="#AFB1B8"/>
<path d="M39.1096 9.98068H39.9064V9.70858H39.1096V9.35766H39.9697V9.08557H38.7858V10.6851H40V10.413H39.1096V9.98068Z" fill="#AFB1B8"/>
</svg>
